<?xml version="1.0" encoding="UTF-8" standalone="no"?>
<svg width="78px" height="24px" viewBox="0 0 78 24" version="1.1" xmlns="http://www.w3.org/2000/svg" xmlns:xlink="http://www.w3.org/1999/xlink">
    <!-- Generator: Sketch 44.1 (41455) - http://www.bohemiancoding.com/sketch -->
    <title>BBC Logo</title>
    <desc>Created with Sketch.</desc>
    <defs></defs>
    <g id="Symbols" stroke="none" stroke-width="1" fill="none" fill-rule="evenodd">
        <g id="Header" transform="translate(-121.000000, -8.000000)" fill="#FFFFFF">
            <g id="LOGIN" transform="translate(121.000000, 7.000000)">
                <g id="BBC-Logo" transform="translate(0.000000, 1.000000)">
                    <g>
                        <path d="M72.8051082,16.0186695 L72.4307082,16.2586554 C70.6220259,17.4173069 68.6573435,18.0364703 66.8752729,18.0364703 C63.0560259,18.0211112 60.53892,15.6442917 60.5288259,12.186576 C60.5334141,8.80469578 63.15972,6.30212364 66.7761671,6.29156427 C68.6188024,6.29348415 70.2898376,6.7936146 72.27012,7.93306728 L72.6362612,8.14329486 L72.6362612,5.05611726 L72.4802612,4.99180106 C70.2457906,4.06641574 68.5123553,3.65268018 66.8018612,3.65268018 C64.15812,3.65268018 61.8603318,4.56846608 60.2278376,6.12741397 C58.5944259,7.6806022 57.6235553,9.87887231 57.6235553,12.3987234 C57.6253906,14.1573395 58.3163788,16.2164179 59.7956259,17.8492814 C61.2693671,19.4850247 63.5423788,20.6782342 66.6577906,20.6763144 L66.66972,20.6763144 C69.2547318,20.6763144 71.0459788,20.0705901 72.6665435,19.2344795 L72.8051082,19.1624838 L72.8051082,16.0186695 Z M54.1098847,23.6742172 L77.4373906,23.6742172 L77.4373906,0.635578447 L54.1098847,0.635578447 L54.1098847,23.6742172 Z" id="Fill-8"></path>
                        <path d="M45.0167365,15.9108679 C45.0222424,13.8172316 43.6962424,12.2275655 41.5691365,11.6151217 C42.1435835,11.3079399 42.5959835,10.9306822 42.9281718,10.4718293 C43.3741482,9.85746558 43.5842894,9.10295016 43.5842894,8.22748189 C43.5842894,7.14466586 43.1814424,6.0455308 42.3124306,5.22189947 C41.4425012,4.40114796 40.1238424,3.86453967 38.3234188,3.86453967 L33.3506894,3.86453967 L33.3506894,20.4590792 L39.1841718,20.4590792 L39.1860071,20.4590792 C41.2681482,20.4590792 42.7308776,19.8687141 43.6733012,18.9913259 C44.6129718,18.1158576 45.0167365,16.9696854 45.0167365,15.9108679 L45.0167365,15.9108679 Z M27.2318188,23.6739292 L50.5584071,23.6739292 L50.5584071,0.635290464 L27.2318188,0.635290464 L27.2318188,23.6739292 Z" id="Fill-10"></path>
                        <path d="M42.1123835,15.5810314 C42.1105482,16.1262792 41.9508776,16.6801665 41.48196,17.111181 C41.0176306,17.5412356 40.2091835,17.8666564 38.8730894,17.8666564 L36.1825482,17.8666564 L36.1825482,13.3395638 L38.7537953,13.3395638 C39.95316,13.3395638 40.8019835,13.5949088 41.3378894,13.9932852 C41.8664541,14.3935816 42.1077953,14.9215504 42.1123835,15.5810314" id="Fill-12"></path>
                        <path d="M39.9347153,10.1579278 C40.4348329,9.77779029 40.6761741,9.24214194 40.6789271,8.43962935 C40.6780094,7.88670202 40.5275153,7.41536987 40.1485271,7.06019085 C39.7704565,6.70981156 39.1244329,6.45830642 38.0847388,6.45830642 L36.1824565,6.45830642 L36.1824565,10.7482929 L37.4901035,10.7482929 C38.6188094,10.7492529 39.4309271,10.5371054 39.9347153,10.1579278" id="Fill-14"></path>
                        <path d="M18.1370188,15.9108679 C18.14436,13.8172316 16.8165247,12.2275655 14.6921718,11.6151217 C15.2629482,11.3079399 15.7162659,10.9306822 16.0512071,10.4718293 C16.4971835,9.85746558 16.7064071,9.10295016 16.7045718,8.22748189 C16.7064071,7.14466586 16.30356,6.0455308 15.4336306,5.22189947 C14.5646188,4.40114796 13.2477953,3.86453967 11.4455365,3.86453967 L6.47188941,3.86453967 L6.47188941,20.4590792 L12.3072071,20.4590792 L12.3090424,20.4590792 C14.3911835,20.4590792 15.8502424,19.8687141 16.7908306,18.9913259 C17.7341718,18.1158576 18.1397718,16.9696854 18.1370188,15.9108679 L18.1370188,15.9108679 Z M0.354854118,23.6739292 L23.6805247,23.6739292 L23.6805247,0.635290464 L0.354854118,0.635290464 L0.354854118,23.6739292 Z" id="Fill-16"></path>
                        <path d="M13.0559153,10.1579278 C13.5541976,9.77779029 13.7973741,9.24214194 13.80288,8.43962935 C13.8010447,7.88670202 13.6505506,7.41536987 13.2715624,7.06019085 C12.8889035,6.70981156 12.2483859,6.45830642 11.2068565,6.45830642 L9.30732706,6.45830642 L9.30732706,10.7482929 L10.6122212,10.7482929 C11.7409271,10.7492529 12.5502918,10.5371054 13.0559153,10.1579278" id="Fill-18"></path>
                        <path d="M14.4601906,13.9929972 C13.92612,13.5946208 13.0745435,13.3392759 11.8770141,13.3392759 L9.30760235,13.3392759 L9.30760235,17.8663684 L11.9963082,17.8663684 C13.33332,17.8663684 14.1371788,17.5409476 14.6051788,17.110893 C15.0722612,16.6798785 15.2337671,16.1269512 15.2356024,15.5807434 C15.2310141,14.9212624 14.9915082,14.3932936 14.4601906,13.9929972" id="Fill-20"></path>
                    </g>
                </g>
            </g>
        </g>
    </g>
</svg>